<svg width="2188" height="1032" viewBox="0 0 2188 1032" fill="none" xmlns="http://www.w3.org/2000/svg">
<path d="M980.76 0C976.055 0.241913 971.359 0.498733 966.672 0.770365L940.371 293.236C908.247 326.341 867.646 346.105 823.5 346.105C719.394 346.105 635 236.191 635 100.605C635 81.9695 636.594 63.8189 639.615 46.3719C262.222 132.643 0 323.063 0 544.105C0 709.273 146.409 857.343 377.877 957.639C393.477 842.539 470.649 755.105 563.5 755.105C647.21 755.105 718.175 826.17 742.768 924.504C753.877 883.89 776.852 851.533 810.797 834.366C894.081 792.248 1011.86 857.507 1073.87 980.126C1082.44 997.071 1089.5 1014.23 1095.08 1031.32C1100.65 1014.23 1107.71 997.071 1116.28 980.126C1178.29 857.507 1296.07 792.248 1379.36 834.366C1413.22 851.492 1436.17 883.733 1447.31 924.21C1471.97 826.029 1542.87 755.105 1626.5 755.105C1719.13 755.105 1796.16 842.124 1812.01 956.819C2042.39 856.537 2188 708.823 2188 544.105C2188 323.955 1927.89 134.181 1552.95 47.4219C1555.85 64.5467 1557.39 82.343 1557.39 100.605C1557.39 236.191 1472.99 346.105 1368.89 346.105C1324.74 346.105 1284.14 326.341 1252.01 293.236L1225.74 1.03039C1220.91 0.740642 1216.07 0.466616 1211.22 0.208421L1199 142.105H993L980.76 0Z" fill="#8FA5F4"/>
</svg>
